# xmcd CD database file
#
# Track frame offsets:
#	150
#	18127
#	38390
#	58696
#	74824
#	95475
#	117621
#	139140
#	154876
#	175813
#	191613
#	212231
#	233061
#	251377
#
# Disc length: 3601 seconds
#
# Revision: 3
# Processed by: cddbd v1.5.2PL0 Copyright (c) Steve Scherf et al.
# Submitted via: CDex 1.70beta2
#
DISCID=c40e0f0e
DTITLE=Bandari - Garden of Dreams
DYEAR=2001
DGENRE=New Age
TTITLE0=Turning
TTITLE1=Dream Catcher
TTITLE2=Beyond the Sundial
TTITLE3=Adagio in Minor
TTITLE4=Zarabanda
TTITLE5=Glary Season
TTITLE6=Lauren
TTITLE7=Give Me Your Hand
TTITLE8=The Soong Sister
TTITLE9=Ortaffa
TTITLE10=Beyond the Invisible
TTITLE11=Hymn
TTITLE12=The Golden Land
TTITLE13=Breakout
EXTD=123 YEAR: 2001
EXTT0=
EXTT1=
EXTT2=
EXTT3=
EXTT4=
EXTT5=
EXTT6=
EXTT7=
EXTT8=
EXTT9=
EXTT10=
EXTT11=
EXTT12=
EXTT13=
PLAYORDER=
